<?xml version="1.0" encoding="UTF-8" standalone="no"?>
<!-- Created with Inkscape (http://www.inkscape.org/) -->

<svg
   width="160.00005mm"
   height="160.00056mm"
   viewBox="0 0 160.00005 160.00056"
   version="1.1"
   id="svg5"
   inkscape:version="1.1.1 (3bf5ae0d25, 2021-09-20)"
   sodipodi:docname="gC.svg"
   xmlns:inkscape="http://www.inkscape.org/namespaces/inkscape"
   xmlns:sodipodi="http://sodipodi.sourceforge.net/DTD/sodipodi-0.dtd"
   xmlns:xlink="http://www.w3.org/1999/xlink"
   xmlns="http://www.w3.org/2000/svg"
   xmlns:svg="http://www.w3.org/2000/svg">
  <sodipodi:namedview
     id="namedview7"
     pagecolor="#ffffff"
     bordercolor="#cccccc"
     borderopacity="1"
     inkscape:pageshadow="0"
     inkscape:pageopacity="0"
     inkscape:pagecheckerboard="false"
     inkscape:document-units="mm"
     showgrid="false"
     inkscape:zoom="2.654742"
     inkscape:cx="490.44314"
     inkscape:cy="266.3159"
     inkscape:window-width="3840"
     inkscape:window-height="2066"
     inkscape:window-x="2869"
     inkscape:window-y="-11"
     inkscape:window-maximized="1"
     inkscape:current-layer="layer1-7"
     showborder="false" />
  <defs
     id="defs2">
    <linearGradient
       inkscape:collect="always"
       id="linearGradient886">
      <stop
         style="stop-color:#363bb6;stop-opacity:1"
         offset="0"
         id="stop1148" />
      <stop
         style="stop-color:#00063f;stop-opacity:1"
         offset="1"
         id="stop1150" />
    </linearGradient>
    <linearGradient
       inkscape:collect="always"
       id="linearGradient886-6">
      <stop
         style="stop-color:#363bb6;stop-opacity:1"
         offset="0"
         id="stop882" />
      <stop
         style="stop-color:#00063f;stop-opacity:1"
         offset="1"
         id="stop884" />
    </linearGradient>
    <linearGradient
       inkscape:collect="always"
       xlink:href="#linearGradient886-6"
       id="linearGradient1539"
       x1="294.23047"
       y1="-45.191406"
       x2="292.68381"
       y2="527.35822"
       gradientUnits="userSpaceOnUse" />
    <linearGradient
       inkscape:collect="always"
       xlink:href="#linearGradient886"
       id="linearGradient1961"
       x1="311.05261"
       y1="-86.750587"
       x2="289.72443"
       y2="-35.02475"
       gradientUnits="userSpaceOnUse"
       gradientTransform="matrix(3.7795276,0,0,3.7795276,-628.84233,628.45969)" />
  </defs>
  <g
     inkscape:label="Layer 1"
     inkscape:groupmode="layer"
     id="layer1"
     transform="translate(-200.7467,-108.84192)">
    <g
       inkscape:label="Layer 1"
       id="layer1-7"
       transform="translate(34.365501,275.12188)">
      <text
         xml:space="preserve"
         style="font-style:normal;font-weight:normal;font-size:10.5833px;line-height:1.25;font-family:sans-serif;fill:#000000;fill-opacity:1;stroke:none;stroke-width:0.264583"
         x="117.34911"
         y="130.2572"
         id="text2234"
         transform="scale(-1)"><tspan
           id="tspan2232"
           style="stroke-width:0.264583"
           sodipodi:role="line"
           x="117.34911"
           y="130.2572" /></text>
      <text
         xml:space="preserve"
         style="font-style:normal;font-weight:normal;font-size:10.5833px;line-height:1.25;font-family:sans-serif;fill:#000000;fill-opacity:1;stroke:none;stroke-width:0.264583"
         x="113.10937"
         y="203.06772"
         id="text16655"
         transform="scale(-1)"><tspan
           sodipodi:role="line"
           id="tspan16653"
           style="stroke-width:0.264583"
           x="113.10937"
           y="203.06772" /></text>
      <path
         id="path6833"
         style="fill:url(#linearGradient1961);fill-opacity:1;stroke:none;stroke-width:1.65558"
         d="M 302.36328 56.693359 C 166.68334 56.693019 56.693095 166.68513 56.693359 302.36523 C 56.694191 438.04459 166.68414 548.03355 302.36328 548.0332 C 339.69012 547.90447 376.49683 539.27041 409.98828 522.78906 L 409.48633 487.82227 L 409.47852 487.82227 L 409.47852 430.4668 C 402.22613 436.2123 326.61916 493.1134 222.79297 451.16016 C 155.52282 419.08555 121.23184 362.62386 127.17383 287.46094 C 140.68677 186.74982 211.61703 136.28596 286.63672 135.07617 C 331.64859 134.35028 378.13279 151.35571 414.57031 185.88086 L 281.62695 187.02734 C 177.763 200.25312 162.4861 310.7505 197.46094 361.51172 C 197.46094 361.51172 243.72454 436.83606 333.10742 407.61523 C 407.4022 378.451 409.47852 311.35937 409.47852 311.35938 L 299.81055 310.21289 C 300.44097 308.54988 295.13345 256.94488 363.08984 257.5 C 433.23848 258.07297 489.29295 257.63614 494.33594 256.92578 C 474.35558 273.82564 468.09098 294.72489 463.47852 317.53516 L 463.47852 487.79102 C 517.17914 441.13867 548.0218 373.50039 548.03125 302.36523 C 548.03155 166.68588 438.04239 56.694077 302.36328 56.693359 z M 463.47852 487.79102 L 463.45312 487.81641 L 463.47852 487.82227 L 463.47852 487.79102 z "
         transform="matrix(0.26458333,0,0,0.26458333,166.3812,-166.27996)" />
      <path
         id="path897"
         style="fill:url(#linearGradient1539);fill-opacity:1.0;stroke-width:1.86101"
         d="M 294.23047,-45.191406 A 302.36297,302.36297 0 0 0 -8.1308594,257.17188 302.36297,302.36297 0 0 0 294.23047,559.53516 302.36297,302.36297 0 0 0 596.59375,257.17188 a 302.36297,302.36297 0 0 0 -0.043,-3.40235 l -40.32226,-0.21875 a 262.0479,262.0479 0 0 1 0.0508,3.6211 A 262.0479,262.0479 0 0 1 294.23047,519.2207 262.0479,262.0479 0 0 1 32.183594,257.17188 262.0479,262.0479 0 0 1 294.23047,-4.8769531 Z"
         transform="matrix(0.26458333,0,0,0.26458333,168.53249,-154.32307)" />
    </g>
  </g>
</svg>
