<?xml version="1.0" standalone="no"?>
<!DOCTYPE svg PUBLIC "-//W3C//DTD SVG 20010904//EN"
 "http://www.w3.org/TR/2001/REC-SVG-20010904/DTD/svg10.dtd">
<svg version="1.0" xmlns="http://www.w3.org/2000/svg"
 width="700.000000pt" height="700.000000pt" viewBox="0 0 700.000000 700.000000"
 preserveAspectRatio="xMidYMid meet">
<metadata>
Created by potrace 1.14, written by Peter Selinger 2001-2017
</metadata>
<g transform="translate(0.000000,700.000000) scale(0.100000,-0.100000)"
fill="#000000" stroke="none">
<path d="M3277 6994 c-1 -1 -38 -4 -82 -8 -638 -49 -1288 -301 -1817 -704
-111 -84 -133 -102 -226 -187 -352 -320 -662 -745 -837 -1145 -25 -58 -50
-114 -55 -125 -45 -93 -150 -427 -176 -560 -2 -11 -10 -54 -19 -95 -29 -147
-35 -193 -52 -370 -15 -162 -8 -592 12 -711 2 -13 6 -46 9 -74 21 -182 109
-546 165 -680 5 -11 29 -74 55 -141 55 -142 169 -372 246 -497 30 -48 60 -95
65 -105 25 -44 135 -194 213 -291 147 -181 309 -345 492 -498 75 -62 271 -207
325 -240 11 -6 61 -36 110 -67 194 -117 463 -242 683 -315 83 -28 284 -84 345
-97 89 -19 213 -41 276 -50 25 -3 57 -8 71 -10 124 -19 557 -26 725 -11 886
80 1723 499 2305 1156 36 41 70 79 75 85 25 26 146 188 197 261 274 395 475
884 562 1365 14 81 17 101 32 215 3 27 8 61 10 75 1 14 6 103 10 198 l6 172
-235 0 -236 0 1 -67 c1 -64 -10 -277 -17 -312 -1 -9 -6 -38 -9 -66 -4 -27 -11
-72 -16 -100 -5 -27 -12 -63 -15 -80 -13 -75 -18 -96 -46 -200 -92 -336 -218
-612 -410 -902 -153 -232 -373 -477 -579 -643 -30 -25 -57 -47 -60 -50 -8 -8
-179 -131 -225 -162 -157 -103 -388 -221 -575 -293 -119 -46 -377 -120 -485
-139 -16 -3 -41 -8 -55 -11 -14 -3 -45 -8 -70 -10 -25 -3 -52 -8 -60 -10 -8
-2 -51 -7 -95 -11 -44 -3 -89 -8 -100 -10 -26 -6 -386 -5 -445 1 -80 7 -154
15 -180 20 -14 2 -45 7 -70 10 -25 3 -52 8 -60 10 -8 2 -31 7 -50 10 -256 42
-633 181 -900 332 -93 53 -284 176 -300 194 -3 3 -23 18 -45 34 -245 179 -531
486 -707 760 -102 159 -224 388 -253 475 -1 3 -7 19 -14 35 -74 173 -168 511
-186 665 -3 19 -6 44 -9 55 -4 20 -15 124 -22 205 -15 172 -2 499 26 670 5 30
11 69 14 85 2 17 9 50 14 75 6 25 13 57 15 71 18 98 100 351 162 499 87 210
261 509 386 664 219 274 416 461 674 643 412 290 939 487 1415 529 30 2 73 6
95 9 22 2 82 5 133 6 l92 2 0 234 0 234 -111 -3 c-61 -2 -111 -4 -112 -4z"/>
<path d="M3427 6345 c-1 -2 -54 -5 -118 -9 -63 -4 -124 -8 -135 -10 -10 -2
-41 -7 -69 -10 -44 -6 -104 -16 -192 -32 -104 -19 -325 -87 -463 -141 -479
-190 -917 -525 -1225 -938 -327 -436 -524 -965 -561 -1500 -80 -1158 537
-2234 1581 -2758 245 -122 599 -231 852 -262 26 -3 62 -8 79 -10 155 -21 523
-22 631 -1 12 3 47 7 78 11 222 24 601 136 820 243 l39 20 -3 528 c-1 291 -4
530 -6 532 -1 2 -31 -17 -66 -41 -190 -133 -510 -268 -748 -317 -320 -65 -665
-61 -970 10 -473 111 -843 348 -1151 737 -69 86 -182 302 -229 436 -33 96 -70
239 -77 302 -3 22 -6 45 -9 52 -16 48 -24 363 -12 478 7 64 9 78 33 200 59
304 200 624 373 850 72 94 81 105 161 185 298 301 680 482 1115 527 130 13
354 8 492 -12 403 -60 817 -258 1113 -532 l35 -33 -45 -1 c-25 0 -256 -2 -515
-5 -997 -9 -1012 -10 -1111 -32 -332 -75 -591 -236 -774 -483 -89 -120 -187
-327 -215 -457 -3 -12 -7 -32 -10 -44 -5 -23 -8 -39 -21 -118 -10 -57 -11
-307 -2 -380 34 -283 151 -517 362 -725 193 -191 384 -302 626 -364 229 -59
520 -43 760 41 84 30 240 107 271 134 8 8 19 14 23 14 15 0 175 130 231 188
31 31 80 89 109 127 73 97 119 180 187 340 16 37 55 188 61 235 1 14 5 -273 8
-638 l5 -664 76 74 c91 87 172 184 236 282 80 121 197 396 216 506 3 14 10 45
17 70 7 25 14 54 16 65 24 136 49 255 54 255 3 0 5 -430 5 -955 0 -525 3 -955
6 -955 8 0 217 208 271 270 274 317 475 686 588 1079 35 121 77 317 86 397 3
33 8 62 9 65 6 8 18 233 18 334 0 93 -11 287 -18 327 -3 13 -7 43 -10 68 -17
146 -91 450 -134 555 -5 11 -30 72 -56 135 -247 605 -714 1116 -1305 1428
-307 162 -586 249 -980 306 -73 10 -405 27 -413 21z m2234 -2380 c-74 -76
-109 -124 -153 -205 -51 -94 -107 -252 -123 -350 -3 -19 -11 -39 -16 -45 -7
-7 -10 -7 -9 0 2 6 2 15 1 20 -1 15 -613 15 -623 1 -5 -8 -8 -8 -8 -1 0 7 -92
12 -272 14 -284 3 -748 8 -902 10 l-88 1 6 73 c27 286 202 461 526 524 14 3
389 7 833 8 445 2 810 5 812 7 2 1 19 3 39 3 l35 0 -58 -60z"/>
</g>
</svg>
