<?xml version="1.0" standalone="no"?>
<!DOCTYPE svg PUBLIC "-//W3C//DTD SVG 20010904//EN"
 "http://www.w3.org/TR/2001/REC-SVG-20010904/DTD/svg10.dtd">
<svg version="1.0" xmlns="http://www.w3.org/2000/svg"
 width="260.000000pt" height="260.000000pt" viewBox="0 0 260.000000 260.000000"
 preserveAspectRatio="xMidYMid meet">
<metadata>
Created by potrace 1.14, written by Peter Selinger 2001-2017
</metadata>
<g transform="translate(0.000000,260.000000) scale(0.100000,-0.100000)"
fill="#000000" stroke="none">
<path d="M1150 2592 c-572 -70 -1030 -505 -1130 -1072 -18 -104 -21 -349 -5
-425 21 -99 28 -128 51 -200 61 -193 162 -355 318 -510 195 -194 397 -303 667
-361 117 -25 381 -25 499 0 484 103 863 450 997 911 26 90 49 239 49 309 l-1
69 -82 2 c-70 1 -83 -1 -84 -14 -1 -32 -8 -101 -13 -143 -50 -424 -354 -792
-766 -927 -36 -12 -78 -24 -94 -27 -16 -3 -32 -7 -36 -9 -13 -8 -136 -19 -215
-19 -544 -1 -995 368 -1111 906 -17 82 -23 275 -11 368 61 449 393 824 831
939 70 18 135 29 231 36 17 2 36 3 43 4 8 1 12 25 12 86 l0 85 -62 -2 c-35 -2
-74 -4 -88 -6z"/>
<path d="M1175 2349 c-397 -48 -746 -329 -873 -704 -39 -116 -52 -190 -56
-316 -12 -360 177 -721 479 -914 265 -169 576 -214 876 -125 107 32 157 58
161 83 2 12 2 102 0 199 l-3 177 -36 -24 c-275 -188 -682 -168 -938 45 -208
175 -289 451 -210 723 70 244 222 411 441 487 79 28 130 35 249 34 121 -1 224
-27 334 -84 65 -34 185 -120 178 -127 -2 -1 -129 -3 -282 -5 -154 -1 -302 -6
-330 -11 -130 -23 -265 -119 -327 -233 -81 -150 -79 -366 5 -497 100 -156 273
-246 446 -234 104 7 125 13 205 55 83 43 161 117 204 191 31 55 70 176 60 187
-4 3 -110 6 -237 7 l-231 2 0 28 c0 93 86 179 192 193 48 6 628 11 628 5 0 -2
-16 -25 -35 -52 -20 -26 -46 -79 -60 -118 -23 -69 -23 -76 -23 -440 0 -204 4
-371 8 -371 4 0 29 24 57 52 228 244 337 581 286 888 -25 154 -46 218 -111
344 -199 380 -629 606 -1057 555z"/>
</g>
</svg>
